<svg xmlns="http://www.w3.org/2000/svg" xmlns:xlink="http://www.w3.org/1999/xlink" width="1240" height="421" viewBox="0 0 1240 421">
  <defs>
    <clipPath id="clip-path">
      <rect id="Rectángulo_293058" data-name="Rectángulo 293058" width="1240" height="421" rx="35" transform="translate(0 0)" fill="none"/>
    </clipPath>
  </defs>
  <g id="Grupo_898171" data-name="Grupo 898171" transform="translate(-184 -300.558)">
    <g id="Grupo_873710" data-name="Grupo 873710" transform="translate(184 300.558)" opacity="0.6" clip-path="url(#clip-path)">
      <g id="Grupo_873709" data-name="Grupo 873709" transform="translate(-153.649 -471.271)">
        <path id="SVGID" d="M0,0H1365.484V1790.248H0Z" transform="translate(93.192 87.966)" fill="#dcdddd"/>
        <g id="Grupo_873690" data-name="Grupo 873690" transform="translate(1346.617 403.009)" opacity="0.3">
          <g id="Grupo_873689" data-name="Grupo 873689" transform="translate(0 0)">
            <g id="Grupo_873686" data-name="Grupo 873686">
              <path id="Trazado_599801" data-name="Trazado 599801" d="M1358.2,509.39c-40.388,0-73.247-72.832-73.247-162.358s32.859-162.358,73.247-162.358,73.247,72.834,73.247,162.358S1398.593,509.39,1358.2,509.39Zm0-320.914c-39.443,0-71.532,71.127-71.532,158.556s32.089,158.558,71.532,158.558,71.533-71.127,71.533-158.558S1397.647,188.476,1358.2,188.476Z" transform="translate(-1284.957 -184.675)" fill="#d2e1f1"/>
            </g>
            <g id="Grupo_873687" data-name="Grupo 873687" transform="translate(24.129 53.487)">
              <path id="Trazado_599802" data-name="Trazado 599802" d="M1362.4,430.744c-27.083,0-49.118-48.839-49.118-108.873S1335.315,213,1362.4,213s49.117,48.839,49.117,108.871S1389.481,430.744,1362.4,430.744Zm0-213.943c-26.138,0-47.4,47.134-47.4,105.07s21.264,105.073,47.4,105.073,47.4-47.134,47.4-105.073S1388.536,216.8,1362.4,216.8Z" transform="translate(-1313.281 -213)" fill="#d2e1f1"/>
            </g>
            <g id="Grupo_873688" data-name="Grupo 873688" transform="translate(48.26 106.973)">
              <path id="Trazado_599803" data-name="Trazado 599803" d="M1366.593,352.1c-13.778,0-24.987-24.846-24.987-55.386s11.209-55.384,24.987-55.384,24.987,24.844,24.987,55.384S1380.371,352.1,1366.593,352.1Zm0-106.969c-12.832,0-23.272,23.141-23.272,51.583s10.44,51.587,23.272,51.587,23.272-23.141,23.272-51.587S1379.426,245.126,1366.593,245.126Z" transform="translate(-1341.606 -241.325)" fill="#d2e1f1"/>
            </g>
          </g>
        </g>
        <g id="Grupo_873691" data-name="Grupo 873691" transform="translate(0 140.248)" opacity="0.4">
          <path id="Trazado_599804" data-name="Trazado 599804" d="M147.592,849.3l-10.286-.359c1.156-161.919,52.261-323.793,130.2-412.4,70.013-79.593,151.175-97.858,228.454-105.74,11.918-1.216,24.06-2.249,35.8-3.25,64.646-5.506,131.493-11.2,194.279-49.895,83.649-51.551,147.628-160.286,175.532-298.32l9.388,9.325C881.8,132.913,815.4,246.258,728.792,299.633c-63.945,39.407-131.4,45.153-196.64,50.713-11.722,1-23.845,2.03-35.725,3.242C420.31,361.351,340.462,379.233,272.2,456.839,197.6,541.645,148.689,695.7,147.592,849.3Z" transform="translate(-137.306 20.656)" fill="#fda829"/>
        </g>
        <g id="Grupo_873692" data-name="Grupo 873692" transform="translate(1009.263 1366.061)">
          <path id="Trazado_599805" data-name="Trazado 599805" d="M783.1,915.321,775.4,900.2C822.011,783.624,885.778,704.29,954.951,676.811c41.306-16.409,83.793-14.159,124.882-11.985,27.877,1.481,56.7,3,84.769-1.356,39.355-6.114,134.921-38.093,172.268-202.618l9.189,10.246c-39.721,174.987-139.627,208.731-180.739,215.119-28.548,4.432-57.619,2.895-85.732,1.407-40.578-2.149-82.537-4.373-122.823,11.632C889.859,725.834,828.183,802.568,783.1,915.321Z" transform="translate(-775.397 -460.852)" fill="#fda829"/>
        </g>
        <g id="Grupo_873693" data-name="Grupo 873693" transform="translate(248.261 0)" opacity="0.3">
          <path id="Trazado_599806" data-name="Trazado 599806" d="M619.238,381.879a97.8,97.8,0,0,1-27.543-3.99c-32.947-9.621-64.586-36.284-95.184-62.069-15.746-13.271-32.029-26.993-48.3-38.235-41.42-28.621-100.119-48.77-144.542,17.763l-.959-3.148c44.983-67.379,104.232-47.112,146.012-18.247,16.322,11.279,32.63,25.022,48.4,38.312,30.506,25.709,62.05,52.293,94.8,61.858,55.264,16.139,112.4-17.554,156.74-92.443S822.822,93.65,830.473-28.747l1.7.523C824.46,95.157,794.4,209.215,749.7,284.706,712.344,347.789,665.979,381.875,619.238,381.879Z" transform="translate(-302.708 28.747)" fill="#d2e1f1"/>
        </g>
        <g id="Grupo_873694" data-name="Grupo 873694" transform="translate(1009.262 189.094)" opacity="0.3">
          <path id="Trazado_599807" data-name="Trazado 599807" d="M907.814,1272.685c-7.777-47.95-5.7-103.255,5.859-155.729,10.662-48.418,28.957-92.072,50.2-119.772,41.508-54.13,91.013-63.317,142.335-68.555l3.971-.4c47.459-4.811,96.533-9.787,139.053-56.312,55.1-60.282,96.186-189.077,112.735-353.357,14.824-147.138,9.463-299.512,4.278-446.868l1.709-.3c5.194,147.636,10.565,300.3-4.314,447.992-16.663,165.409-58.087,295.142-113.65,355.938-42.841,46.876-92.1,51.868-139.733,56.7l-3.971.4c-51.1,5.214-100.373,14.342-141.545,68.036-40.27,52.518-71.969,168.221-55.308,270.94Z" transform="translate(-903.188 -71.392)" fill="#d2e1f1"/>
        </g>
        <path id="Trazado_599809" data-name="Trazado 599809" d="M1279.7,135.516l13.208,16.9V118.613Z" transform="translate(-199.133 159.65)" fill="#fff"/>
        <g id="Grupo_873695" data-name="Grupo 873695" transform="translate(852.637 181.857)">
          <path id="Trazado_599810" data-name="Trazado 599810" d="M1084.631,332.487c-39.968,0-72.484-72.075-72.484-160.667S1044.663,11.15,1084.631,11.15s72.485,72.077,72.485,160.669S1124.6,332.487,1084.631,332.487Zm0-317.536c-39.023,0-70.77,70.37-70.77,156.868s31.747,156.868,70.77,156.868,70.771-70.37,70.771-156.868S1123.655,14.951,1084.631,14.951Z" transform="translate(-1012.147 -11.15)" fill="#fda829"/>
        </g>
        <g id="Grupo_873696" data-name="Grupo 873696" transform="translate(425.586 1593.297)">
          <path id="Trazado_599811" data-name="Trazado 599811" d="M639.654,927.989c-44.17,0-80.1-79.653-80.1-177.558s35.935-177.558,80.1-177.558,80.106,79.653,80.106,177.558S683.824,927.989,639.654,927.989Zm0-351.316c-43.225,0-78.391,77.946-78.391,173.757s35.166,173.759,78.391,173.759,78.391-77.947,78.391-173.759S682.879,576.673,639.654,576.673Z" transform="translate(-559.549 -572.872)" fill="#fda829"/>
        </g>
      </g>
      <g id="Grupo_876901" data-name="Grupo 876901" transform="translate(-169.715 10940.488)">
        <rect id="SVGID-2" data-name="SVGID" width="1365.484" height="1465.026" transform="translate(93.192 61.665)" fill="#dee4f0"/>
        <g id="Grupo_873690-2" data-name="Grupo 873690" transform="translate(1346.618 483.226)" opacity="0.3">
          <g id="Grupo_873689-2" data-name="Grupo 873689" transform="translate(0 0)">
            <g id="Grupo_873686-2" data-name="Grupo 873686">
              <path id="Trazado_599801-2" data-name="Trazado 599801" d="M1358.2,509.39c-40.388,0-73.247-72.832-73.247-162.358s32.859-162.358,73.247-162.358,73.247,72.834,73.247,162.358S1398.593,509.39,1358.2,509.39Zm0-320.914c-39.443,0-71.532,71.127-71.532,158.556s32.089,158.558,71.532,158.558,71.533-71.127,71.533-158.558S1397.647,188.476,1358.2,188.476Z" transform="translate(-1284.957 -184.675)" fill="#d2e1f1"/>
            </g>
            <g id="Grupo_873687-2" data-name="Grupo 873687" transform="translate(24.129 53.487)">
              <path id="Trazado_599802-2" data-name="Trazado 599802" d="M1362.4,430.744c-27.083,0-49.118-48.839-49.118-108.873S1335.315,213,1362.4,213s49.117,48.839,49.117,108.871S1389.481,430.744,1362.4,430.744Zm0-213.943c-26.138,0-47.4,47.134-47.4,105.07s21.264,105.073,47.4,105.073,47.4-47.134,47.4-105.073S1388.536,216.8,1362.4,216.8Z" transform="translate(-1313.281 -213)" fill="#d2e1f1"/>
            </g>
            <g id="Grupo_873688-2" data-name="Grupo 873688" transform="translate(48.26 106.973)">
              <path id="Trazado_599803-2" data-name="Trazado 599803" d="M1366.593,352.1c-13.778,0-24.987-24.846-24.987-55.386s11.209-55.384,24.987-55.384,24.987,24.844,24.987,55.384S1380.371,352.1,1366.593,352.1Zm0-106.969c-12.832,0-23.272,23.141-23.272,51.583s10.44,51.587,23.272,51.587,23.272-23.141,23.272-51.587S1379.426,245.126,1366.593,245.126Z" transform="translate(-1341.606 -241.325)" fill="#d2e1f1"/>
            </g>
          </g>
        </g>
        <g id="Grupo_873691-2" data-name="Grupo 873691" transform="translate(0 0)">
          <path id="Trazado_599804-2" data-name="Trazado 599804" d="M147.592,849.3l-10.286-.359c1.156-161.919,52.261-323.793,130.2-412.4,70.013-79.593,151.175-97.858,228.454-105.74,11.918-1.216,24.06-2.249,35.8-3.25,64.646-5.506,131.493-11.2,194.279-49.895,83.649-51.551,147.628-160.286,175.532-298.32l9.388,9.325C881.8,132.913,815.4,246.258,728.792,299.633c-63.945,39.407-131.4,45.153-196.64,50.713-11.722,1-23.845,2.03-35.725,3.242C420.31,361.351,340.462,379.233,272.2,456.839,197.6,541.645,148.689,695.7,147.592,849.3Z" transform="translate(-137.306 20.656)" fill="#fda829"/>
        </g>
        <g id="Grupo_873692-2" data-name="Grupo 873692" transform="translate(1009.263 1004.736)">
          <path id="Trazado_599805-2" data-name="Trazado 599805" d="M783.1,915.321,775.4,900.2C822.011,783.624,885.778,704.29,954.951,676.811c41.306-16.409,83.793-14.159,124.882-11.985,27.877,1.481,56.7,3,84.769-1.356,39.355-6.114,134.921-38.093,172.268-202.618l9.189,10.246c-39.721,174.987-139.627,208.731-180.739,215.119-28.548,4.432-57.619,2.895-85.732,1.407-40.578-2.149-82.537-4.373-122.823,11.632C889.859,725.834,828.183,802.568,783.1,915.321Z" transform="translate(-775.397 -460.852)" fill="#fda829"/>
        </g>
        <g id="Grupo_873693-2" data-name="Grupo 873693" transform="translate(248.262 80.217)" opacity="0.3">
          <path id="Trazado_599806-2" data-name="Trazado 599806" d="M619.238,381.879a97.8,97.8,0,0,1-27.543-3.99c-32.947-9.621-64.586-36.284-95.184-62.069-15.746-13.271-32.029-26.993-48.3-38.235-41.42-28.621-100.119-48.77-144.542,17.763l-.959-3.148c44.983-67.379,104.232-47.112,146.012-18.247,16.322,11.279,32.63,25.022,48.4,38.312,30.506,25.709,62.05,52.293,94.8,61.858,55.264,16.139,112.4-17.554,156.74-92.443S822.822,93.65,830.473-28.747l1.7.523C824.46,95.157,794.4,209.215,749.7,284.706,712.344,347.789,665.979,381.875,619.238,381.879Z" transform="translate(-302.708 28.747)" fill="#d2e1f1"/>
        </g>
        <g id="Grupo_873694-2" data-name="Grupo 873694" transform="translate(1009.263 269.312)" opacity="0.3">
          <path id="Trazado_599807-2" data-name="Trazado 599807" d="M907.814,1272.685c-7.777-47.95-5.7-103.255,5.859-155.729,10.662-48.418,28.957-92.072,50.2-119.772,41.508-54.13,91.013-63.317,142.335-68.555l3.971-.4c47.459-4.811,96.533-9.787,139.053-56.312,55.1-60.282,96.186-189.077,112.735-353.357,14.824-147.138,9.463-299.512,4.278-446.868l1.709-.3c5.194,147.636,10.565,300.3-4.314,447.992-16.663,165.409-58.087,295.142-113.65,355.938-42.841,46.876-92.1,51.868-139.733,56.7l-3.971.4c-51.1,5.214-100.373,14.342-141.545,68.036-40.27,52.518-71.969,168.221-55.308,270.94Z" transform="translate(-903.188 -71.392)" fill="#d2e1f1"/>
        </g>
        <path id="Trazado_599809-2" data-name="Trazado 599809" d="M1279.7,135.516l13.208,16.9V118.613Z" transform="translate(-199.133 239.867)" fill="#fff"/>
        <g id="Grupo_873695-2" data-name="Grupo 873695" transform="translate(852.637 155.556)">
          <path id="Trazado_599810-2" data-name="Trazado 599810" d="M1084.631,332.487c-39.968,0-72.484-72.075-72.484-160.667S1044.663,11.15,1084.631,11.15s72.485,72.077,72.485,160.669S1124.6,332.487,1084.631,332.487Zm0-317.536c-39.023,0-70.77,70.37-70.77,156.868s31.747,156.868,70.77,156.868,70.771-70.37,70.771-156.868S1123.655,14.951,1084.631,14.951Z" transform="translate(-1012.147 -11.15)" fill="#fda829"/>
        </g>
        <g id="Grupo_873696-2" data-name="Grupo 873696" transform="translate(467.066 1216.265)">
          <path id="Trazado_599811-2" data-name="Trazado 599811" d="M639.654,927.989c-44.17,0-80.1-79.653-80.1-177.558s35.935-177.558,80.1-177.558,80.106,79.653,80.106,177.558S683.824,927.989,639.654,927.989Zm0-351.316c-43.225,0-78.391,77.946-78.391,173.757s35.166,173.759,78.391,173.759,78.391-77.947,78.391-173.759S682.879,576.673,639.654,576.673Z" transform="translate(-559.549 -572.872)" fill="#fda829"/>
        </g>
      </g>
    </g>
  </g>
</svg>
