<svg xmlns="http://www.w3.org/2000/svg" width="540.606" height="566.261" viewBox="0 0 540.606 566.261">
  <path id="Trazado_613500" data-name="Trazado 613500" d="M1042.882,1032.829c45.6,108.168,4.217,232.651-99.347,289.046-2.034,1.2-8.056,4.133-10.316,5.232-1.884,1.016-5,2.348-7.025,3.187l-7.116,3c-3.4,1.423-7.435,2.594-10.9,3.92-4.2,1.494-10.538,3.164-14.81,4.44-2.246.544-8.942,2.04-11.313,2.6-40.624,8.175-83.64,5.244-122.5-9.367-49.231-18.032-91.325-54.506-116.78-100.314-1.12-2.32-4.388-8.2-5.44-10.521-.795-1.768-2.5-5.4-3.3-7.177-1.348-2.653-3.348-8.228-4.524-10.955-1.377-3.431-2.684-7.7-3.943-11.184-.983-2.85-2.439-8.518-3.343-11.383-.474-2.457-2.287-9.091-2.69-11.557-.316-1.9-1.078-5.873-1.4-7.787-1.008-6.005-1.967-13.55-2.36-19.624-6.381-73.585,27.453-148.993,87.349-192.3a6.218,6.218,0,0,1,7.792,9.676,233.794,233.794,0,0,0-39.188,43.592c-1.46,2.135-4.6,7.122-5.991,9.159-1.016,1.842-4.376,7.5-5.477,9.462-3.727,6.948-7.058,14.1-10.2,21.322-1.431,3.918-3.131,7.969-4.479,11.9-.82,2.447-2.506,8.053-3.281,10.383a213.961,213.961,0,0,0-8.131,53.63c-.2,4.053-.129,10.378.033,14.5-.03,1.954.324,5.246.444,7.236,7.144,105.384,95.576,191.347,201.443,195.061,132.3,5.843,237.911-113.243,214.458-244.061a197.5,197.5,0,0,0-18.919-55.867c-3.638-7.666,7.548-13.112,11.263-5.254Z" transform="matrix(0.391, -0.921, 0.921, 0.391, -1115.594, 605.376)" fill="#fda829"/>
</svg>
