<svg xmlns="http://www.w3.org/2000/svg" xmlns:xlink="http://www.w3.org/1999/xlink" width="1240" height="468" viewBox="0 0 1240 468">
  <defs>
    <clipPath id="clip-path">
      <rect id="Rectángulo_293058" data-name="Rectángulo 293058" width="1240" height="468" rx="21" transform="translate(0 0)" fill="none"/>
    </clipPath>
  </defs>
  <g id="Grupo_894267" data-name="Grupo 894267" transform="translate(-184 -300.558)">
    <g id="Grupo_873710" data-name="Grupo 873710" transform="translate(184 300.558)" opacity="0.6" clip-path="url(#clip-path)">
      <g id="Grupo_873709" data-name="Grupo 873709" transform="translate(-153.649 -523.479)">
        <path id="SVGID" d="M0,0H1365.484V1988.574H0Z" transform="translate(93.192 97.711)" fill="#f9f7ef"/>
        <g id="Grupo_873690" data-name="Grupo 873690" transform="translate(1346.617 447.654)" opacity="0.3">
          <g id="Grupo_873689" data-name="Grupo 873689" transform="translate(0 0)">
            <g id="Grupo_873686" data-name="Grupo 873686">
              <path id="Trazado_599801" data-name="Trazado 599801" d="M1358.2,545.362c-40.388,0-73.247-80.9-73.247-180.344s32.859-180.344,73.247-180.344,73.247,80.9,73.247,180.344S1398.593,545.362,1358.2,545.362Zm0-356.465c-39.443,0-71.532,79.007-71.532,176.121s32.089,176.124,71.532,176.124,71.533-79.007,71.533-176.124S1397.647,188.9,1358.2,188.9Z" transform="translate(-1284.957 -184.675)" fill="#d2e1f1"/>
            </g>
            <g id="Grupo_873687" data-name="Grupo 873687" transform="translate(24.129 59.412)">
              <path id="Trazado_599802" data-name="Trazado 599802" d="M1362.4,454.866c-27.083,0-49.118-54.25-49.118-120.934S1335.315,213,1362.4,213s49.117,54.25,49.117,120.932S1389.481,454.866,1362.4,454.866Zm0-237.643c-26.138,0-47.4,52.356-47.4,116.71s21.264,116.714,47.4,116.714,47.4-52.356,47.4-116.714S1388.536,217.222,1362.4,217.222Z" transform="translate(-1313.281 -213)" fill="#d2e1f1"/>
            </g>
            <g id="Grupo_873688" data-name="Grupo 873688" transform="translate(48.26 118.824)">
              <path id="Trazado_599803" data-name="Trazado 599803" d="M1366.593,364.367c-13.778,0-24.987-27.6-24.987-61.522s11.209-61.52,24.987-61.52,24.987,27.6,24.987,61.52S1380.371,364.367,1366.593,364.367Zm0-118.82c-12.832,0-23.272,25.705-23.272,57.3s10.44,57.3,23.272,57.3,23.272-25.7,23.272-57.3S1379.426,245.547,1366.593,245.547Z" transform="translate(-1341.606 -241.325)" fill="#d2e1f1"/>
            </g>
          </g>
        </g>
        <g id="Grupo_873691" data-name="Grupo 873691" transform="translate(0 155.784)" opacity="0.4">
          <path id="Trazado_599804" data-name="Trazado 599804" d="M147.592,945.678l-10.286-.4c1.156-179.857,52.261-359.664,130.2-458.081,70.013-88.41,151.175-108.7,228.454-117.454,11.918-1.351,24.06-2.5,35.8-3.61,64.646-6.116,131.493-12.44,194.279-55.422C809.685,253.45,873.664,132.67,901.568-20.656L910.956-10.3C881.8,149.926,815.4,275.827,728.792,335.115c-63.945,43.773-131.4,50.156-196.64,56.331-11.722,1.107-23.845,2.255-35.725,3.6C420.31,403.67,340.462,423.533,272.2,509.736,197.6,603.938,148.689,775.056,147.592,945.678Z" transform="translate(-137.306 20.656)" fill="#fda829"/>
        </g>
        <g id="Grupo_873692" data-name="Grupo 873692" transform="translate(1009.263 1517.395)">
          <path id="Trazado_599805" data-name="Trazado 599805" d="M783.1,965.667l-7.7-16.8c46.614-129.487,110.381-217.61,179.555-248.133,41.306-18.227,83.793-15.727,124.882-13.313,27.877,1.645,56.7,3.337,84.769-1.506,39.355-6.792,134.921-42.313,172.268-225.065l9.189,11.381c-39.721,194.372-139.627,231.854-180.739,238.95-28.548,4.923-57.619,3.216-85.732,1.563-40.578-2.387-82.537-4.858-122.823,12.921C889.859,755.189,828.183,840.423,783.1,965.667Z" transform="translate(-775.397 -460.852)" fill="#fda829"/>
        </g>
        <g id="Grupo_873693" data-name="Grupo 873693" transform="translate(248.261 0)" opacity="0.3">
          <path id="Trazado_599806" data-name="Trazado 599806" d="M619.238,427.369a88.774,88.774,0,0,1-27.543-4.432c-32.947-10.687-64.586-40.3-95.184-68.945-15.746-14.741-32.029-29.984-48.3-42.47-41.42-31.792-100.119-54.172-144.542,19.731l-.959-3.5c44.983-74.843,104.232-52.331,146.012-20.268,16.322,12.528,32.63,27.794,48.4,42.556,30.506,28.558,62.05,58.086,94.8,68.71,55.264,17.927,112.4-19.5,156.74-102.684s74.162-208.861,81.813-344.818l1.7.581C824.46,108.883,794.4,235.577,749.7,319.431,712.344,389.5,665.979,427.364,619.238,427.369Z" transform="translate(-302.708 28.747)" fill="#d2e1f1"/>
        </g>
        <g id="Grupo_873694" data-name="Grupo 873694" transform="translate(1009.262 210.042)" opacity="0.3">
          <path id="Trazado_599807" data-name="Trazado 599807" d="M907.814,1405.765c-7.777-53.262-5.7-114.694,5.859-172.981,10.662-53.782,28.957-102.272,50.2-133.041,41.508-60.127,91.013-70.332,142.335-76.15l3.971-.447c47.459-5.344,96.533-10.871,139.053-62.55,55.1-66.96,96.186-210.023,112.735-392.5,14.824-163.438,9.463-332.692,4.278-496.373l1.709-.329c5.194,163.991,10.565,333.567-4.314,497.621-16.663,183.733-58.087,327.838-113.65,395.37-42.841,52.069-92.1,57.614-139.733,62.98l-3.971.449c-51.1,5.791-100.373,15.931-141.545,75.573-40.27,58.336-71.969,186.856-55.308,300.955Z" transform="translate(-903.188 -71.392)" fill="#d2e1f1"/>
        </g>
        <path id="Trazado_599809" data-name="Trazado 599809" d="M1279.7,137.388l13.208,18.775v-37.55Z" transform="translate(-199.133 190.476)" fill="#fff"/>
        <g id="Grupo_873695" data-name="Grupo 873695" transform="translate(852.637 202.003)">
          <path id="Trazado_599810" data-name="Trazado 599810" d="M1084.631,368.085c-39.968,0-72.484-80.06-72.484-178.466S1044.663,11.15,1084.631,11.15s72.485,80.062,72.485,178.469S1124.6,368.085,1084.631,368.085Zm0-352.713c-39.023,0-70.77,78.166-70.77,174.246s31.747,174.246,70.77,174.246S1155.4,285.7,1155.4,189.619,1123.655,15.372,1084.631,15.372Z" transform="translate(-1012.147 -11.15)" fill="#fda829"/>
        </g>
        <g id="Grupo_873696" data-name="Grupo 873696" transform="translate(425.586 1769.803)">
          <path id="Trazado_599811" data-name="Trazado 599811" d="M639.654,967.329c-44.17,0-80.1-88.477-80.1-197.229s35.935-197.228,80.1-197.228,80.106,88.477,80.106,197.228S683.824,967.329,639.654,967.329Zm0-390.235c-43.225,0-78.391,86.581-78.391,193.006s35.166,193.008,78.391,193.008,78.391-86.583,78.391-193.008S682.879,577.094,639.654,577.094Z" transform="translate(-559.549 -572.872)" fill="#fda829"/>
        </g>
      </g>
      <g id="Grupo_876901" data-name="Grupo 876901" transform="translate(-169.715 12152.486)">
        <rect id="SVGID-2" data-name="SVGID" width="1365.484" height="1627.323" transform="translate(93.192 68.497)" fill="#dee4f0"/>
        <g id="Grupo_873690-2" data-name="Grupo 873690" transform="translate(1346.618 536.758)" opacity="0.3">
          <g id="Grupo_873689-2" data-name="Grupo 873689" transform="translate(0 0)">
            <g id="Grupo_873686-2" data-name="Grupo 873686">
              <path id="Trazado_599801-2" data-name="Trazado 599801" d="M1358.2,545.362c-40.388,0-73.247-80.9-73.247-180.344s32.859-180.344,73.247-180.344,73.247,80.9,73.247,180.344S1398.593,545.362,1358.2,545.362Zm0-356.465c-39.443,0-71.532,79.007-71.532,176.121s32.089,176.124,71.532,176.124,71.533-79.007,71.533-176.124S1397.647,188.9,1358.2,188.9Z" transform="translate(-1284.957 -184.675)" fill="#d2e1f1"/>
            </g>
            <g id="Grupo_873687-2" data-name="Grupo 873687" transform="translate(24.129 59.412)">
              <path id="Trazado_599802-2" data-name="Trazado 599802" d="M1362.4,454.866c-27.083,0-49.118-54.25-49.118-120.934S1335.315,213,1362.4,213s49.117,54.25,49.117,120.932S1389.481,454.866,1362.4,454.866Zm0-237.643c-26.138,0-47.4,52.356-47.4,116.71s21.264,116.714,47.4,116.714,47.4-52.356,47.4-116.714S1388.536,217.222,1362.4,217.222Z" transform="translate(-1313.281 -213)" fill="#d2e1f1"/>
            </g>
            <g id="Grupo_873688-2" data-name="Grupo 873688" transform="translate(48.26 118.824)">
              <path id="Trazado_599803-2" data-name="Trazado 599803" d="M1366.593,364.367c-13.778,0-24.987-27.6-24.987-61.522s11.209-61.52,24.987-61.52,24.987,27.6,24.987,61.52S1380.371,364.367,1366.593,364.367Zm0-118.82c-12.832,0-23.272,25.705-23.272,57.3s10.44,57.3,23.272,57.3,23.272-25.7,23.272-57.3S1379.426,245.547,1366.593,245.547Z" transform="translate(-1341.606 -241.325)" fill="#d2e1f1"/>
            </g>
          </g>
        </g>
        <g id="Grupo_873691-2" data-name="Grupo 873691" transform="translate(0 0)">
          <path id="Trazado_599804-2" data-name="Trazado 599804" d="M147.592,945.678l-10.286-.4c1.156-179.857,52.261-359.664,130.2-458.081,70.013-88.41,151.175-108.7,228.454-117.454,11.918-1.351,24.06-2.5,35.8-3.61,64.646-6.116,131.493-12.44,194.279-55.422C809.685,253.45,873.664,132.67,901.568-20.656L910.956-10.3C881.8,149.926,815.4,275.827,728.792,335.115c-63.945,43.773-131.4,50.156-196.64,56.331-11.722,1.107-23.845,2.255-35.725,3.6C420.31,403.67,340.462,423.533,272.2,509.736,197.6,603.938,148.689,775.056,147.592,945.678Z" transform="translate(-137.306 20.656)" fill="#fda829"/>
        </g>
        <g id="Grupo_873692-2" data-name="Grupo 873692" transform="translate(1009.263 1116.041)">
          <path id="Trazado_599805-2" data-name="Trazado 599805" d="M783.1,965.667l-7.7-16.8c46.614-129.487,110.381-217.61,179.555-248.133,41.306-18.227,83.793-15.727,124.882-13.313,27.877,1.645,56.7,3.337,84.769-1.506,39.355-6.792,134.921-42.313,172.268-225.065l9.189,11.381c-39.721,194.372-139.627,231.854-180.739,238.95-28.548,4.923-57.619,3.216-85.732,1.563-40.578-2.387-82.537-4.858-122.823,12.921C889.859,755.189,828.183,840.423,783.1,965.667Z" transform="translate(-775.397 -460.852)" fill="#fda829"/>
        </g>
        <g id="Grupo_873693-2" data-name="Grupo 873693" transform="translate(248.262 89.104)" opacity="0.3">
          <path id="Trazado_599806-2" data-name="Trazado 599806" d="M619.238,427.369a88.774,88.774,0,0,1-27.543-4.432c-32.947-10.687-64.586-40.3-95.184-68.945-15.746-14.741-32.029-29.984-48.3-42.47-41.42-31.792-100.119-54.172-144.542,19.731l-.959-3.5c44.983-74.843,104.232-52.331,146.012-20.268,16.322,12.528,32.63,27.794,48.4,42.556,30.506,28.558,62.05,58.086,94.8,68.71,55.264,17.927,112.4-19.5,156.74-102.684s74.162-208.861,81.813-344.818l1.7.581C824.46,108.883,794.4,235.577,749.7,319.431,712.344,389.5,665.979,427.364,619.238,427.369Z" transform="translate(-302.708 28.747)" fill="#d2e1f1"/>
        </g>
        <g id="Grupo_873694-2" data-name="Grupo 873694" transform="translate(1009.263 299.146)" opacity="0.3">
          <path id="Trazado_599807-2" data-name="Trazado 599807" d="M907.814,1405.765c-7.777-53.262-5.7-114.694,5.859-172.981,10.662-53.782,28.957-102.272,50.2-133.041,41.508-60.127,91.013-70.332,142.335-76.15l3.971-.447c47.459-5.344,96.533-10.871,139.053-62.55,55.1-66.96,96.186-210.023,112.735-392.5,14.824-163.438,9.463-332.692,4.278-496.373l1.709-.329c5.194,163.991,10.565,333.567-4.314,497.621-16.663,183.733-58.087,327.838-113.65,395.37-42.841,52.069-92.1,57.614-139.733,62.98l-3.971.449c-51.1,5.791-100.373,15.931-141.545,75.573-40.27,58.336-71.969,186.856-55.308,300.955Z" transform="translate(-903.188 -71.392)" fill="#d2e1f1"/>
        </g>
        <path id="Trazado_599809-2" data-name="Trazado 599809" d="M1279.7,137.388l13.208,18.775v-37.55Z" transform="translate(-199.133 279.58)" fill="#fff"/>
        <g id="Grupo_873695-2" data-name="Grupo 873695" transform="translate(852.637 172.788)">
          <path id="Trazado_599810-2" data-name="Trazado 599810" d="M1084.631,368.085c-39.968,0-72.484-80.06-72.484-178.466S1044.663,11.15,1084.631,11.15s72.485,80.062,72.485,178.469S1124.6,368.085,1084.631,368.085Zm0-352.713c-39.023,0-70.77,78.166-70.77,174.246s31.747,174.246,70.77,174.246S1155.4,285.7,1155.4,189.619,1123.655,15.372,1084.631,15.372Z" transform="translate(-1012.147 -11.15)" fill="#fda829"/>
        </g>
        <g id="Grupo_873696-2" data-name="Grupo 873696" transform="translate(467.066 1351.004)">
          <path id="Trazado_599811-2" data-name="Trazado 599811" d="M639.654,967.329c-44.17,0-80.1-88.477-80.1-197.229s35.935-197.228,80.1-197.228,80.106,88.477,80.106,197.228S683.824,967.329,639.654,967.329Zm0-390.235c-43.225,0-78.391,86.581-78.391,193.006s35.166,193.008,78.391,193.008,78.391-86.583,78.391-193.008S682.879,577.094,639.654,577.094Z" transform="translate(-559.549 -572.872)" fill="#fda829"/>
        </g>
      </g>
    </g>
  </g>
</svg>
